<?xml version="1.0" encoding="UTF-8" standalone="no"?>
<!-- Created with Inkscape (http://www.inkscape.org/) -->

<svg
   xmlns:dc="http://purl.org/dc/elements/1.1/"
   xmlns:cc="http://creativecommons.org/ns#"
   xmlns:rdf="http://www.w3.org/1999/02/22-rdf-syntax-ns#"
   xmlns:svg="http://www.w3.org/2000/svg"
   xmlns="http://www.w3.org/2000/svg"
   xmlns:sodipodi="http://sodipodi.sourceforge.net/DTD/sodipodi-0.dtd"
   xmlns:inkscape="http://www.inkscape.org/namespaces/inkscape"
   width="210mm"
   height="297mm"
   viewBox="0 0 210 297"
   version="1.1"
   id="svg8"
   sodipodi:docname="logo.svg"
   inkscape:version="0.92.3 (2405546, 2018-03-11)">
  <defs
     id="defs2" />
  <sodipodi:namedview
     id="base"
     pagecolor="#ffffff"
     bordercolor="#666666"
     borderopacity="1.0"
     inkscape:pageopacity="0.0"
     inkscape:pageshadow="2"
     inkscape:zoom="0.61091087"
     inkscape:cx="377.53153"
     inkscape:cy="562.76406"
     inkscape:document-units="mm"
     inkscape:current-layer="layer1"
     showgrid="false"
     inkscape:window-width="1853"
     inkscape:window-height="1016"
     inkscape:window-x="67"
     inkscape:window-y="27"
     inkscape:window-maximized="1"
     showguides="false" />
  <metadata
     id="metadata5">
    <rdf:RDF>
      <cc:Work
         rdf:about="">
        <dc:format>image/svg+xml</dc:format>
        <dc:type
           rdf:resource="http://purl.org/dc/dcmitype/StillImage" />
      </cc:Work>
    </rdf:RDF>
  </metadata>
  <g
     inkscape:label="Layer 1"
     inkscape:groupmode="layer"
     id="layer1">
    <path
       style="fill:#000000;fill-opacity:1;stroke:#ecf3fa;stroke-width:0.0492811;stroke-linecap:butt;stroke-linejoin:miter;stroke-miterlimit:0;stroke-dasharray:none;stroke-dashoffset:0;stroke-opacity:1;paint-order:fill markers stroke"
       d="m 179.18022,123.5851 c -1.45823,1.04652 -2.91831,2.09975 -4.3296,3.03796 -1.93713,1.28817 -3.83029,2.47417 -5.6791,3.55807 -1.84895,1.08384 -3.65295,2.06579 -5.41343,2.94548 -1.76077,0.87962 -3.47631,1.65692 -5.14842,2.33218 -1.65233,0.67518 -3.30921,1.26592 -4.97138,1.7723 -1.66177,0.50638 -3.32905,0.92792 -5.00072,1.26557 -1.6722,0.33762 -3.34886,0.59111 -5.02986,0.7599 -1.68236,0.16883 -3.36897,0.25318 -5.06023,0.25318 -0.92455,0 -1.88674,-0.0341 -2.88629,-0.10299 -0.99915,-0.0688 -2.03599,-0.17236 -3.11011,-0.31006 -1.07439,-0.13771 -2.18667,-0.31001 -3.33596,-0.5166 -1.1495,-0.20656 -2.33642,-0.44771 -3.56036,-0.72312 -2.4487,-0.55081 -5.04773,-1.23889 -7.79632,-2.06508 -2.74869,-0.82627 -5.64764,-1.79018 -8.69588,-2.89195 -1.10158,-0.35542 -1.96677,-0.63996 -2.59616,-0.85322 -0.39344,-0.14217 -0.98382,-0.35543 -1.77044,-0.63973 -2.89147,-1.06607 -5.69191,-1.99899 -8.401319,-2.79868 -1.354643,-0.39981 -2.686489,-0.76621 -3.995661,-1.09936 -1.309191,-0.33314 -2.595619,-0.63316 -3.859325,-0.89968 -1.263694,-0.26652 -2.504685,-0.4996 -3.722882,-0.69949 -1.218237,-0.19997 -2.413789,-0.3667 -3.586549,-0.49995 -1.172732,-0.13326 -2.322812,-0.23307 -3.450074,-0.2997 -1.127264,-0.0668 -2.231931,-0.0995 -3.313722,-0.0995 -1.907869,0 -3.798047,0.0775 -5.671489,0.23298 -1.873454,0.15545 -3.730023,0.38854 -5.569051,0.69955 -1.83904,0.31094 -3.660897,0.6996 -5.465509,1.16601 -1.804612,0.46641 -3.591755,1.01067 -5.361953,1.63264 -1.750501,0.60416 -3.540544,1.3084 -5.369723,2.1124 -1.829208,0.804 -3.697942,1.70794 -5.605811,2.71199 -1.907855,1.00393 -3.854744,2.10798 -5.84129,3.31174 -1.445045,0.87564 -2.934399,1.86378 -4.421048,2.84525 a 74.6898,64.50301 0 0 0 74.124566,57.25217 74.6898,64.50301 0 0 0 74.69024,-64.50346 74.6898,64.50301 0 0 0 -0.79514,-8.88676 z"
       id="path915"
       inkscape:connector-curvature="0" />
    <path
       style="fill:#ff0000;fill-opacity:1;stroke:#ecf3fa;stroke-width:0.0492811;stroke-linecap:butt;stroke-linejoin:miter;stroke-miterlimit:0;stroke-dasharray:none;stroke-dashoffset:0;stroke-opacity:1;paint-order:fill markers stroke"
       d="m 104.7145,47.024639 a 74.6898,64.50301 0 0 0 -74.689859,64.502911 74.6898,64.50301 0 0 0 0.565095,7.25123 c 1.486664,-0.98144 2.976032,-1.96953 4.421049,-2.84522 1.986546,-1.20384 3.933433,-2.30786 5.841304,-3.31183 1.907884,-1.00397 3.776603,-1.90777 5.605797,-2.71184 1.829193,-0.80403 3.619221,-1.50823 5.369752,-2.11235 1.770183,-0.62189 3.557342,-1.16617 5.361939,-1.63257 1.804627,-0.46645 3.626467,-0.85512 5.465523,-1.16609 1.838998,-0.31094 3.695598,-0.54403 5.569022,-0.69951 1.873472,-0.15549 3.763634,-0.23299 5.671518,-0.23299 1.081776,0 2.186429,0.0329 3.313692,0.0995 1.127278,0.0667 2.277373,0.16644 3.450103,0.29972 1.17274,0.13326 2.368263,0.29999 3.586521,0.4999 1.218217,0.19991 2.459167,0.43299 3.722912,0.69953 1.263704,0.26654 2.550103,0.56655 3.859264,0.89973 1.309263,0.33315 2.641059,0.69953 3.995718,1.09933 2.70939,0.79956 5.50998,1.73249 8.40124,2.79865 0.78681,0.28431 1.37703,0.49756 1.77048,0.6397 0.62941,0.21324 1.49457,0.49771 2.59608,0.85311 3.04861,1.1017 5.94746,2.06565 8.69601,2.89188 2.74879,0.82626 5.34744,1.51439 7.79611,2.06522 1.22465,0.27541 2.41133,0.51653 3.56062,0.72308 1.14926,0.20656 2.26172,0.3789 3.33569,0.51659 1.07468,0.1377 2.11117,0.24121 3.11074,0.31005 0.99907,0.0689 1.96171,0.10299 2.88586,0.10299 1.69149,0 3.37788,-0.0843 5.05961,-0.25309 1.68193,-0.16878 3.35829,-0.42231 5.03026,-0.75991 1.67232,-0.3376 3.33894,-0.75915 5.00113,-1.26555 1.66181,-0.50641 3.31885,-1.0972 4.9712,-1.77242 1.67165,-0.67519 3.38765,-1.45256 5.14815,-2.33215 1.76022,-0.87956 3.56459,-1.86147 5.414,-2.94539 1.84836,-1.08388 3.74179,-2.26973 5.67926,-3.55797 1.41045,-0.93817 2.871,-1.99145 4.32895,-3.03801 A 74.6898,64.50301 0 0 0 104.7145,47.024629 Z"
       id="path815"
       inkscape:connector-curvature="0" />
    <flowRoot
       xml:space="preserve"
       id="flowRoot821"
       style="font-style:normal;font-weight:normal;font-size:40px;line-height:1.25;font-family:sans-serif;letter-spacing:0px;word-spacing:0px;fill:#000000;fill-opacity:1;stroke:none"
       transform="scale(0.26458333)"><flowRegion
         id="flowRegion823"><rect
           id="rect825"
           width="96.376472"
           height="156.61177"
           x="-288.26892"
           y="282.66757" /></flowRegion><flowPara
         id="flowPara827" /></flowRoot>    <flowRoot
       xml:space="preserve"
       id="flowRoot818"
       style="font-style:normal;font-weight:normal;font-size:40px;line-height:1.25;font-family:sans-serif;letter-spacing:0px;word-spacing:0px;fill:#000000;fill-opacity:1;stroke:none"><flowRegion
         id="flowRegion820"><rect
           id="rect822"
           width="268.4516"
           height="83.481895"
           x="140.77339"
           y="330.2601" /></flowRegion><flowPara
         id="flowPara824" /></flowRoot>    <flowRoot
       xml:space="preserve"
       id="flowRoot830"
       style="font-style:normal;font-weight:normal;font-size:40px;line-height:1.25;font-family:sans-serif;letter-spacing:0px;word-spacing:0px;fill:#000000;fill-opacity:1;stroke:none"
       transform="matrix(0.35676184,-0.10567768,0.13869679,0.46823248,-147.89285,-54.582892)"><flowRegion
         id="flowRegion832"><rect
           id="rect834"
           width="104.7616"
           height="55.654606"
           x="117.8568"
           y="374.45639"
           ry="0" /></flowRegion><flowPara
         id="flowPara836">LOGO</flowPara></flowRoot>    <flowRoot
       xml:space="preserve"
       id="flowRoot849"
       style="font-style:normal;font-weight:normal;font-size:5.33333349px;line-height:1.25;font-family:sans-serif;letter-spacing:0px;word-spacing:0px;fill:#000000;fill-opacity:1;stroke:none"
       transform="scale(0.26458333)"><flowRegion
         id="flowRegion851"><rect
           id="rect853"
           width="62.503006"
           height="16.204483"
           x="451.41061"
           y="61.126034" /></flowRegion><flowPara
         id="flowPara855"></flowPara></flowRoot>    <text
       xml:space="preserve"
       style="font-style:normal;font-weight:normal;font-size:24.10624504px;line-height:1.25;font-family:sans-serif;letter-spacing:0px;word-spacing:0px;fill:#ff9900;fill-opacity:1;stroke:none;stroke-width:4.51992083;"
       x="-13.891702"
       y="170.87933"
       id="text871"
       transform="matrix(1.1631634,-0.42335688,0.2763101,0.75915577,0,0)"><tspan
         sodipodi:role="line"
         id="tspan869"
         x="-13.891702"
         y="170.87933"
         style="fill:#ff9900;fill-opacity:1;stroke-width:4.51992083;">B</tspan></text>
    <text
       xml:space="preserve"
       style="font-style:normal;font-weight:normal;font-size:25.0736866px;line-height:1.25;font-family:sans-serif;letter-spacing:0px;word-spacing:0px;fill:#00ff00;fill-opacity:1;stroke:none;stroke-width:4.70131588"
       x="52.304653"
       y="145.66344"
       id="text879"
       transform="scale(1.1852244,0.84372209)"><tspan
         sodipodi:role="line"
         id="tspan877"
         x="52.304653"
         y="145.66344"
         style="fill:#00ff00;fill-opacity:1;stroke-width:4.70131588">N</tspan></text>
    <text
       transform="matrix(1.0014659,-0.28716572,0.26457179,0.92267152,0,0)"
       id="text891"
       y="142.29922"
       x="10.884574"
       style="font-style:normal;font-weight:normal;font-size:22.47768593px;line-height:1.25;font-family:sans-serif;letter-spacing:0px;word-spacing:0px;fill:#0000ff;fill-opacity:1;stroke:none;stroke-width:4.21456575"
       xml:space="preserve"><tspan
         style="fill:#0000ff;fill-opacity:1;stroke-width:4.21456575"
         y="142.29922"
         x="10.884574"
         id="tspan889"
         sodipodi:role="line">A</tspan></text>
    <text
       xml:space="preserve"
       style="font-style:normal;font-weight:normal;font-size:22.3460865px;line-height:1.25;font-family:sans-serif;letter-spacing:0px;word-spacing:0px;fill:#16c015;fill-opacity:1;stroke:none;stroke-width:4.18989086"
       x="148.25975"
       y="103.56232"
       id="text895"
       transform="matrix(0.95570519,0.20314142,-0.212794,1.001117,0,0)"><tspan
         sodipodi:role="line"
         id="tspan893"
         x="148.25975"
         y="103.56232"
         style="fill:#16c015;fill-opacity:1;stroke-width:4.18989086">O</tspan></text>
    <text
       xml:space="preserve"
       style="font-style:normal;font-weight:normal;font-size:21.45881271px;line-height:1.25;font-family:sans-serif;letter-spacing:0px;word-spacing:0px;fill:#ff00ff;fill-opacity:1;stroke:none;stroke-width:4.02352667;"
       x="91.665237"
       y="184.89752"
       id="text899"
       transform="matrix(1.0643262,-0.28518536,0.23489038,0.87662287,0,0)"><tspan
         sodipodi:role="line"
         id="tspan897"
         x="91.665237"
         y="184.89752"
         style="fill:#ff00ff;fill-opacity:1;stroke-width:4.02352667;">W</tspan></text>
    <text
       xml:space="preserve"
       style="font-style:normal;font-weight:normal;font-size:22.53873444px;line-height:1.25;font-family:sans-serif;letter-spacing:0px;word-spacing:0px;fill:#004354;fill-opacity:1;stroke:none;stroke-width:4.22601223"
       x="62.03886"
       y="225.29279"
       id="text903"
       transform="matrix(0.95011869,-0.61701425,0.48075334,0.74029524,0,0)"><tspan
         sodipodi:role="line"
         id="tspan901"
         x="62.03886"
         y="225.29279"
         style="fill:#004354;fill-opacity:1;stroke-width:4.22601223">E</tspan></text>
    <text
       xml:space="preserve"
       style="font-style:normal;font-weight:normal;font-size:22.47768593px;line-height:1.25;font-family:sans-serif;letter-spacing:0px;word-spacing:0px;fill:#ff7600;fill-opacity:1;stroke:none;stroke-width:4.21456575"
       x="109.82595"
       y="99.284012"
       id="text907"
       transform="matrix(1.0014658,0.28716573,-0.2645718,0.92267158,0,0)"><tspan
         sodipodi:role="line"
         id="tspan905"
         x="109.82595"
         y="99.284012"
         style="fill:#ff7600;fill-opacity:1;stroke-width:4.21456575">A</tspan></text>
    <text
       transform="matrix(1.1272154,0.36625448,-0.26072446,0.80242738,0,0)"
       id="text911"
       y="107.44496"
       x="111.90574"
       style="font-style:normal;font-weight:normal;font-size:25.0736866px;line-height:1.25;font-family:sans-serif;letter-spacing:0px;word-spacing:0px;fill:#6600ff;fill-opacity:1;stroke:none;stroke-width:4.70131588"
       xml:space="preserve"><tspan
         style="fill:#6600ff;fill-opacity:1;stroke-width:4.70131588"
         y="107.44496"
         x="111.90574"
         id="tspan909"
         sodipodi:role="line">N</tspan></text>
    <text
       xml:space="preserve"
       style="font-style:normal;font-weight:normal;font-size:65.11700439px;line-height:1.25;font-family:sans-serif;letter-spacing:0px;word-spacing:0px;fill:#ffff00;fill-opacity:1;stroke:none;stroke-width:12.20943737;"
       x="32.510193"
       y="227.54787"
       id="text915"
       transform="scale(0.85525596,1.1692406)"><tspan
         sodipodi:role="line"
         id="tspan913"
         x="32.510193"
         y="227.54787"
         style="stroke-width:12.20943737;fill:#ffff00;fill-opacity:1;">LOGO</tspan></text>
  </g>
</svg>
